<svg xmlns="http://www.w3.org/2000/svg" width="53.748" height="53.76" viewBox="0 0 53.748 53.76">
  <g id="EorhGm.tif" transform="translate(-165.456 -54.067)">
    <g id="Group_366" data-name="Group 366" transform="translate(165.456 54.067)">
      <path id="Path_333" data-name="Path 333" d="M165.457,80.873a26.874,26.874,0,1,1,26.713,26.953A26.864,26.864,0,0,1,165.457,80.873Zm26.671,24.255a24.193,24.193,0,1,0-24-24.423A24.178,24.178,0,0,0,192.128,105.128Z" transform="translate(-165.456 -54.067)" fill="#292e33"/>
      <path id="Path_334" data-name="Path 334" d="M242.022,137.22a8.043,8.043,0,0,1,3.033-6.752,14.975,14.975,0,0,1,2.619-1.545c.635-.308,1.276-.607,1.891-.951a10.208,10.208,0,0,0,1.008-.725l.275-1.462c-.4-.31-.753-.6-1.129-.872a1.146,1.146,0,0,0-.475-.176c-1.206-.189-2.414-.36-3.62-.548-.628-.1-1.252-.22-1.877-.337a1.543,1.543,0,0,1-.255-.1c.366-.241.716-.449,1.042-.689a5.247,5.247,0,0,0,1.922-2.982,15.011,15.011,0,0,0,.425-3.008,17.433,17.433,0,0,1,.481-3.728,4.33,4.33,0,0,1,3.2-3.131,8.957,8.957,0,0,1,4.895-.012,4.279,4.279,0,0,1,2.964,2.366,7.146,7.146,0,0,1,.582,2.288c.094.977.129,1.959.228,2.935a11.071,11.071,0,0,0,.616,3.022,5.23,5.23,0,0,0,2.5,2.781c.074.039.146.082.287.162-.325.079-.584.161-.85.2q-2.418.388-4.839.759a1.439,1.439,0,0,0-.749.306c-.288.243-.6.463-.921.711.081.456.15.93.257,1.4a.706.706,0,0,0,.27.361,7.555,7.555,0,0,0,.95.618c.869.454,1.757.872,2.626,1.326a9.722,9.722,0,0,1,2.58,1.876,7.492,7.492,0,0,1,1.809,3.431,9.957,9.957,0,0,1,.248,2.473Z" transform="translate(-226.162 -98.31)" fill="#292e33"/>
    </g>
  </g>
</svg>
