<svg version="1.1" xmlns="http://www.w3.org/2000/svg" xmlns:xlink="http://www.w3.org/1999/xlink" xmlns:a="http://ns.adobe.com/AdobeSVGViewerExtensions/3.0/"
	 x="0px" y="0px" width="512px" height="494.1px" viewBox="0 0 512 494.1" xml:space="preserve">
<defs>
</defs>
<path fill="#C67413" d="M0,229c1.4-6.1,2.4-12.4,4.1-18.4c12.5-42.8,54.9-72.6,98.5-69.3c47,3.5,84.1,37.9,90.7,83.4
	c2.7,18.7-1.7,36.1-7.6,53.3c-18.5,53.9-43.3,104.8-72.9,153.4c-7.7,12.6-23.2,13.3-30.7,1C49.9,379.5,22.6,324.2,4.6,264.8
	C2.7,258.6,1.5,252.2,0,246C0,240.3,0,234.6,0,229z M97,167.7c-39.1,0.1-70.7,31.6-70.5,70.5c0.1,39,31.8,70.6,70.7,70.6
	c38.8,0,70.6-31.9,70.6-70.7C167.9,199.3,136,167.6,97,167.7z"/>
<path fill="#FFFFFF" d="M0,454c4.1-8.5,11-14.4,19.4-17.8c11-4.5,22.5-7.8,33.9-11.4c1.2-0.4,3.7,0.8,4.5,2c3.3,4.8,6,10,9.1,14.9
	c14.4,22.8,45.8,22.8,60.3,0c3-4.8,6-9.6,8.7-14.6c1.3-2.4,2.5-3.2,5.5-2.5c14.2,3.2,28.1,7.2,40.2,15.5
	c16.8,11.4,16.7,23.2-0.4,34.4c-15.2,9.9-32.5,14.3-50.2,16.9c-32.2,4.8-64.1,3.5-95.2-6.5c-7.2-2.3-14.2-5.8-20.9-9.3
	C8.3,472.1,3,467,0,460C0,458,0,456,0,454z"/>
<path fill="#FFFFFF" d="M512,380c-1,4.5-1.8,9.1-2.9,13.6c-1.4,5.6-5.5,8.4-10.5,7.4c-4.9-1-7.5-5.2-6.6-11.1
	c0.6-4.1,1.6-8.2,1.9-12.3c0.4-4.9,1.2-9.4,6.6-11.1c5.5-1.8,8.6,1.7,11.5,5.5C512,374.6,512,377.3,512,380z"/>
<path fill="#C67413" d="M370.2,60.8C371.2,26.3,400-0.9,435,0c33.3,0.9,61.4,30.1,58.8,63.5c-1.1,13.6-6.1,27.2-11,40.2
	c-11,29-24.8,56.7-40.9,83.2c-5.7,9.4-13,9.5-18.5,0.1c-20.3-34.5-38.2-70.1-49.7-108.6C371.9,72.7,371.3,66.7,370.2,60.8z
	 M432.2,17.7c-24.6,0.3-44.1,20.1-43.8,44.5c0.3,24.3,20.4,44,44.8,43.7c24.1-0.3,43.8-20.4,43.6-44.4
	C476.6,37.1,456.5,17.4,432.2,17.7z"/>
<path fill="#FFFFFF" d="M395.9,175c4.5,7.8,8.7,15.3,13.3,22.6c11.7,18.9,35.2,18.9,46.9,0c4.5-7.4,8.7-14.9,13.4-22.9
	c9.5,4.5,18.1,9.8,22.9,19.6c3.6,7.4,2.4,14.6-2.2,21.2c-4.7,6.8-11.3,11.4-18.7,14.5c-26.7,11.3-53.5,11.4-79.7-1.3
	c-6.1-2.9-11.6-7.8-16.1-13c-6.6-7.5-6.2-17.1-0.5-25.4C379.5,184.1,386.9,178.5,395.9,175z"/>
<path fill="#FFFFFF" d="M406.9,291c-3.2,0-6.3,0.2-9.5,0c-4.6-0.3-8.1-4.1-8.2-8.5c-0.1-4.3,3-8.4,7.4-8.6c7-0.4,14-0.4,20.9,0.1
	c4.4,0.3,7.4,4.6,7.2,8.8c-0.2,4.3-3.5,7.8-7.9,8.3c-1.6,0.2-3.3,0.1-5,0.1C410.2,291.1,408.6,291.1,406.9,291
	C406.9,291,406.9,291,406.9,291z"/>
<path fill="#FFFFFF" d="M274,450c3.2,0,6.3-0.2,9.5,0c4.7,0.3,8.1,4,8.2,8.5c0.1,4.3-2.9,8.4-7.4,8.6c-6.9,0.4-13.9,0.4-20.9,0
	c-4.3-0.3-7.4-4.6-7.2-8.8c0.2-4.4,3.7-8,8.3-8.4c0.3,0,0.7,0,1,0C268.3,449.9,271.2,449.9,274,450C274,449.9,274,450,274,450z"/>
<path fill="#FFFFFF" d="M290.4,211.7c-2.8,0-5.7,0.2-8.5,0c-5.4-0.4-8.9-4-8.9-8.9c0-4.9,3.7-8.6,9-8.8c5.8-0.2,11.6-0.2,17.4,0
	c5.2,0.2,8.6,3.6,8.8,8.3c0.2,5-3.1,8.8-8.4,9.3C296.7,211.9,293.5,211.7,290.4,211.7C290.4,211.7,290.4,211.7,290.4,211.7z"/>
<path fill="#FFFFFF" d="M380.5,467.4c-3.2,0-6.3,0.2-9.5-0.1c-5.1-0.5-8.3-4.1-8.1-8.9c0.1-4.8,3.5-8.3,8.6-8.5
	c6.1-0.2,12.3-0.2,18.4,0c4.7,0.2,8,3.9,8.2,8.4c0.1,4.6-2.9,8.4-7.6,8.9C387.1,467.7,383.8,467.4,380.5,467.4
	C380.5,467.4,380.5,467.4,380.5,467.4z"/>
<path fill="#FFFFFF" d="M300.2,291c-3,0-6,0.1-9,0c-4.8-0.3-8.1-3.6-8.4-8.2c-0.2-4.9,2.8-8.8,7.9-9.1c6.5-0.4,13-0.4,19.4,0
	c5,0.3,8.2,4.4,7.9,9.1c-0.2,4.5-3.7,7.9-8.4,8.3c-0.3,0-0.7,0-1,0C305.8,291,303,291,300.2,291C300.2,291,300.2,291,300.2,291z"/>
<path fill="#FFFFFF" d="M327.3,449.9c3,0,6-0.1,9,0c4.9,0.2,8.6,4,8.7,8.6c0.1,4.4-3.1,8.5-7.8,8.8c-6.6,0.4-13.3,0.4-19.9,0
	c-4.7-0.3-7.8-4.4-7.6-8.9c0.2-4.8,3.7-8.2,8.7-8.4C321.3,449.8,324.3,449.9,327.3,449.9z"/>
<path fill="#FFFFFF" d="M471.5,446.3c-1.9-1.6-5.1-3.1-6.2-5.5c-1-2.5-1-6.7,0.5-8.7c4-5.4,8.9-10.3,13.8-15c3.1-3,7.1-2.7,10.5-0.1
	c3.4,2.6,5.3,6.7,2.7,10.1c-4.9,6.4-10.8,11.9-16.5,17.7C475.6,445.6,473.9,445.6,471.5,446.3z"/>
<path fill="#FFFFFF" d="M353.7,291c-3,0-6,0.1-9,0c-4.9-0.2-8.6-3.8-8.7-8.5c-0.2-4.6,3.2-8.7,8.2-8.9c6.3-0.3,12.6-0.3,18.9,0.1
	c5,0.3,8.1,4.4,7.9,9.2c-0.2,4.8-3.6,8-8.9,8.2C359.3,291.1,356.5,291,353.7,291z"/>
<path fill="#FFFFFF" d="M506.5,339.3c-0.3,5.2-2.5,8.1-6.7,9.2c-4.2,1.1-7.7-0.5-9.7-4.2c-3-5.5-5.7-11.2-8.3-17
	c-1.8-4-0.5-7.6,2.9-10.2c3.4-2.6,7.6-2.9,10.5,0.1C501.2,323.7,504.3,331.8,506.5,339.3z"/>
<path fill="#FFFFFF" d="M474.5,296.6c0.2,8.3-6.7,12.7-12.9,9.5c-5.3-2.8-10.5-5.7-15.6-8.8c-4.3-2.6-5.6-7.5-3.4-11.6
	c2.1-4,6.8-6,11-4c5.9,2.9,11.7,6.2,17.2,9.8C472.8,292.8,473.7,295.6,474.5,296.6z"/>
<path fill="#FFFFFF" d="M244.6,253.8c3,2.2,5.5,3.7,7.6,5.6c3.3,3,6.2,6.4,9.6,9.3c4.4,3.7,5.5,8.4,2.5,12.6
	c-2.8,4-8.1,5.3-12.3,1.9c-5.3-4.4-10.3-9.3-14.6-14.7c-1.5-1.9-1.4-6.3-0.2-8.7C238.4,257.5,241.7,256.1,244.6,253.8z"/>
<path fill="#FFFFFF" d="M427.4,466.9c-6.9,0-10.7-3.1-11.3-7.6c-0.7-4.5,1.9-8.6,6.6-9.7c5.9-1.5,11.9-2.8,18-3.8
	c4.8-0.8,8.6,1.9,9.9,6.3c1.2,4.2-1,9-5.5,10.4C438.6,464.6,431.9,465.9,427.4,466.9z"/>
<path fill="#FFFFFF" d="M259.6,214.9c-5.3,8-9.8,15.6-15.2,22.5c-1.1,1.4-6.4,1-8.5-0.4c-2.2-1.4-4.2-5.3-3.9-7.7
	c1.3-8.8,6-16.2,13-21.6c1.9-1.5,6.3-1.3,8.7-0.2C256.1,208.6,257.4,212,259.6,214.9z"/>
<path fill="#FFFFFF" d="M340,194.1c8.8-0.1,12.9,2.8,13,8.7c0.1,6.1-4,8.9-12.8,8.9c-1.8,0-3.7,0.1-5.5-0.1c-4.7-0.6-7.9-4.2-8-8.7
	c0-4.8,3.3-8.4,8.3-8.9C336.7,193.9,338.4,194.1,340,194.1z"/>
<path fill="#FFFFFF" d="M225.5,450c1.8,0,3.7-0.2,5.5,0c4.2,0.6,7.1,4,7.2,8.2c0.1,4.6-2,8-6.5,8.7c-3.9,0.7-8,0.6-11.9,0.3
	c-5.1-0.5-8.1-4.4-7.8-9.2c0.3-4.5,3.7-7.8,8.5-8.1C222.1,449.9,223.8,450,225.5,450C225.5,450,225.5,450,225.5,450z"/>
</svg>