<svg xmlns="http://www.w3.org/2000/svg" width="54.138" height="54.117" viewBox="0 0 54.138 54.117">
  <g id="Group_369" data-name="Group 369" transform="translate(-809.933 -1114)">
    <path id="Path_335" data-name="Path 335" d="M191.744,443.87a27.058,27.058,0,1,1,26.906-27.118A27.1,27.1,0,0,1,191.744,443.87ZM167.214,419.1c.056,4.3,2.339,10.1,7.066,14.864a24.386,24.386,0,0,0,41.679-17.035,24.35,24.35,0,0,0-24.347-24.508C178.025,392.388,167.177,403.5,167.214,419.1Z" transform="translate(645.421 724.246)" fill="#292e33"/>
    <path id="Path_336" data-name="Path 336" d="M254.541,469.512a6.663,6.663,0,0,0,.164.9,1.062,1.062,0,0,0,.335.444,7.794,7.794,0,0,0,1.841,1.065,19.587,19.587,0,0,1,2.756,1.456,7.93,7.93,0,0,1,2.327,2.281A7.589,7.589,0,0,1,263.1,478.7c.086.6.124,1.207.181,1.8-.027.03-.038.044-.05.055s-.026.027-.041.029a2.431,2.431,0,0,1-.258.021H241.157a2.268,2.268,0,0,1-.048-.363,7.884,7.884,0,0,1,4.3-7.272c.887-.473,1.8-.9,2.692-1.358.4-.207.781-.449,1.166-.682a1.179,1.179,0,0,0,.584-.985c.009-.135.036-.27.052-.385-.379-.277-.757-.521-1.1-.808a7.035,7.035,0,0,1-2.211-3.458,8.927,8.927,0,0,1,.53-6.774,6.3,6.3,0,0,1,2.489-2.733,4.848,4.848,0,0,1,5.613.293,7.207,7.207,0,0,1,2.653,4,8.689,8.689,0,0,1,.3,3.3,7.8,7.8,0,0,1-2.576,5.347C255.284,469.007,254.915,469.238,254.541,469.512Z" transform="translate(584.81 672.598)" fill="#292e33"/>
  </g>
</svg>
